# xmcd CD database file
#
# Track frame offsets:
#	150
#	12217
#	24320
#	38822
#	53445
#	65615
#	78217
#	89572
#	101225
#	113997
#	130302
#	143520
#	155945
#	167957
#	178520
#	190517
#	201280
#	213322
#	222802
#	234485
#	247300
#	260500
#	280975
#	292640
#	304362
#
# Disc length: 4199 seconds
#
# Revision: 2
# Processed by: cddbd v1.5.1PL2 Copyright (c) Steve Scherf et al.
# Submitted via: CDex 1.51
#
DISCID=6b106519
DTITLE=Various Artist - Country 100:Vol. 1
DYEAR=1990
DGENRE=Country
TTITLE0=Patsy Cline - Crazy
TTITLE1=Hank Williams - Your Cheatin' Heart
TTITLE2=Glen Campbell - Rhinestone Cowboy
TTITLE3=Cristy Lane - One Day At A Time
TTITLE4=Freddy Fender - Wasted Days and Wasted Nights
TTITLE5=Patsy Cline - I Fall To Pieces
TTITLE6=Donna Fargo - Happiest Girl In The Whole USA
TTITLE7=Jack Greene - There Goes My Everything
TTITLE8=Sonny James - Since I Met You Baby
TTITLE9=Waylon Jennings - Rose In Paradise
TTITLE10=Crystal Gayle - Talking In Your Sleep
TTITLE11=Bill Anderson - I Love You Drops
TTITLE12=Mel Tillis - Saw Mill
TTITLE13=Ferlin Husky - Wings Of A Dove
TTITLE14=Statler Brothers - Class Of '57
TTITLE15=Leroy Van Dyke - Walk On By
TTITLE16=Hank Thompson - Wild Side Of Life
TTITLE17=Tom T. Hall - I Love
TTITLE18=John Conlee - Back Side Of Thirty
TTITLE19=Reba McEntire - You're The First Time I've Thought About Leaving
TTITLE20=Ernest Tubb - (Remember Me) I'm The One Who Loves You
TTITLE21=Merle Haggard - I Think I'll Just Stay Here And Drink
TTITLE22=George Jones - She Thinks I Still Care
TTITLE23=Tennessee Ernie Ford - Sixteen Tons
TTITLE24=Faron Young - Hello Walls
EXTD=YEAR: 1990
EXTT0=
EXTT1=
EXTT2=
EXTT3=
EXTT4=
EXTT5=
EXTT6=
EXTT7=
EXTT8=
EXTT9=
EXTT10=
EXTT11=
EXTT12=
EXTT13=
EXTT14=
EXTT15=
EXTT16=
EXTT17=
EXTT18=
EXTT19=
EXTT20=
EXTT21=
EXTT22=
EXTT23=
EXTT24=
PLAYORDER=
